<?xml version="1.0" encoding="UTF-8" standalone="no"?>
<!DOCTYPE svg PUBLIC "-//W3C//DTD SVG 1.1//EN" "http://www.w3.org/Graphics/SVG/1.1/DTD/svg11.dtd">
<!-- Created with Vectornator (http://vectornator.io/) -->
<svg height="100%" stroke-miterlimit="10" style="fill-rule:nonzero;clip-rule:evenodd;stroke-linecap:round;stroke-linejoin:round;" version="1.1" viewBox="0 0 3840 2160" width="100%" xml:space="preserve" xmlns="http://www.w3.org/2000/svg" xmlns:vectornator="http://vectornator.io" xmlns:xlink="http://www.w3.org/1999/xlink">
<defs>
<clipPath id="TextBounds">
<rect height="208.194" width="1225.03" x="1424.82" y="975.903"/>
</clipPath>
<clipPath id="TextBounds_2">
<rect height="124.505" width="272.939" x="2357.06" y="1124.6"/>
</clipPath>
<clipPath id="TextBounds_3">
<rect height="44.8813" width="104.57" x="2614.79" y="980.4"/>
</clipPath>
<clipPath id="TextBounds_4">
<rect height="201.116" width="337.904" x="2710.57" y="1455.26"/>
</clipPath>
</defs>
<g id="Layer-1" vectornator:layerName="Layer 1">
<path d="M1006.04 793.779L2796.97 793.779C2801.84 793.779 2805.79 797.809 2805.79 802.779L2805.79 1357.22C2805.79 1362.19 2801.84 1366.22 2796.97 1366.22L1006.04 1366.22C1001.17 1366.22 997.218 1362.19 997.218 1357.22L997.218 802.779C997.218 797.809 1001.17 793.779 1006.04 793.779Z" fill="#ffffff" fill-rule="nonzero" opacity="0" stroke="none"/>
<path d="M1352.68 1017.22L1355.6 1017.22L1355.6 1135.53L1352.68 1135.53L1352.68 1017.22Z" fill="#000000" fill-rule="nonzero" opacity="0" stroke="none"/>
<path d="M1355.6 1017.22L1585.67 1017.22L1585.67 1135.53L1355.6 1135.53L1355.6 1017.22Z" fill="#ffffff" fill-rule="nonzero" opacity="0" stroke="none"/>
<path d="M1361.81 1017.22L1367.66 1017.22L1367.66 1135.53L1361.81 1135.53L1361.81 1017.22Z" fill="#000000" fill-rule="nonzero" opacity="0" stroke="none"/>
<path d="M1367.66 1010.52L1597.73 1010.52L1597.73 1151.33L1367.66 1151.33L1367.66 1010.52Z" fill="#ffffff" fill-rule="nonzero" opacity="0" stroke="none"/>
<path d="M1397.05 1017.22L1424.82 1017.22L1424.82 1135.53L1397.05 1135.53L1397.05 1017.22Z" fill="#000000" fill-rule="nonzero" opacity="1" stroke="none"/>
<path d="M1390.43 1002.84L1627.12 1002.84L1627.12 1151.33L1390.43 1151.33L1390.43 1002.84Z" fill="#ffffff" fill-rule="nonzero" opacity="0" stroke="none"/>
<path d="M1359.82 1017.22L1387.59 1017.22L1387.59 1135.53L1359.82 1135.53L1359.82 1017.22Z" fill="#000000" fill-rule="nonzero" opacity="1" stroke="none"/>
<path d="M1424.82 1001.6L1654.88 1001.6L1654.88 1151.33L1424.82 1151.33L1424.82 1001.6Z" fill="#ffffff" fill-rule="nonzero" opacity="0" stroke="none"/>
<g fill="#000000" opacity="1" stroke="none">
<path clip-path="url(#TextBounds)" d="M1435.24 1135.57L1465.29 1135.57L1465.29 1100.93L1485.6 1100.93C1511.97 1100.93 1529 1084.72 1529 1059.42L1529 1059.26C1529 1033.96 1511.97 1017.42 1485.6 1017.42L1435.24 1017.42L1435.24 1135.57ZM1478.4 1040.42C1491.09 1040.42 1498.62 1046.98 1498.62 1059.26L1498.62 1059.42C1498.62 1071.7 1491.09 1078.34 1478.4 1078.34L1465.29 1078.34L1465.29 1040.42L1478.4 1040.42Z"/>
<path clip-path="url(#TextBounds)" d="M1540.38 1135.57L1569.45 1135.57L1569.45 1088.24C1569.45 1075.55 1576.08 1068.84 1588.28 1068.84C1591.72 1068.84 1595.08 1069.49 1597.53 1070.47L1597.53 1045.67C1595.32 1044.93 1592.78 1044.52 1590 1044.52C1579.52 1044.52 1572.48 1050.91 1570.02 1062.2L1569.45 1062.2L1569.45 1046.4L1540.38 1046.4L1540.38 1135.57Z"/>
<path clip-path="url(#TextBounds)" d="M1636.59 1137.45C1650.1 1137.45 1659.19 1131.07 1663.69 1119.85L1664.26 1119.85L1664.26 1135.57L1693.25 1135.57L1693.25 1046.4L1664.26 1046.4L1664.26 1097C1664.26 1106.91 1658.45 1113.87 1649.28 1113.87C1639.7 1113.87 1634.95 1107.81 1634.95 1097.58L1634.95 1046.4L1605.88 1046.4L1605.88 1103.8C1605.88 1124.93 1617.02 1137.45 1636.59 1137.45Z"/>
<path clip-path="url(#TextBounds)" d="M1746.47 1137.45C1770.96 1137.45 1787.66 1125.74 1787.66 1107.32L1787.66 1107.24C1787.66 1093.89 1779.47 1086.52 1760.56 1082.76L1744.84 1079.65C1736.4 1077.93 1733.7 1075.63 1733.7 1071.79L1733.7 1071.7C1733.7 1067.04 1738.28 1064.09 1745.41 1064.09C1753.43 1064.09 1757.94 1068.43 1758.59 1073.67L1758.67 1074.32L1785.2 1074.32L1785.12 1073.67C1784.87 1057.7 1771.2 1044.52 1745.41 1044.52C1721.01 1044.52 1705.78 1055.57 1705.78 1073.34L1705.78 1073.42C1705.78 1087.01 1714.87 1096.1 1732.31 1099.46L1748.03 1102.57C1755.97 1104.21 1758.84 1106.42 1758.84 1110.43L1758.84 1110.51C1758.84 1115.1 1754.17 1117.88 1746.47 1117.88C1737.96 1117.88 1733.37 1114.36 1731.98 1108.3L1731.82 1107.65L1703.65 1107.65L1703.73 1108.39C1705.7 1125.74 1719.94 1137.45 1746.47 1137.45Z"/>
<path clip-path="url(#TextBounds)" d="M1837.11 1137.45C1861.6 1137.45 1878.3 1125.74 1878.3 1107.32L1878.3 1107.24C1878.3 1093.89 1870.11 1086.52 1851.2 1082.76L1835.48 1079.65C1827.04 1077.93 1824.34 1075.63 1824.34 1071.79L1824.34 1071.7C1824.34 1067.04 1828.93 1064.09 1836.05 1064.09C1844.07 1064.09 1848.58 1068.43 1849.23 1073.67L1849.31 1074.32L1875.84 1074.32L1875.76 1073.67C1875.52 1057.7 1861.84 1044.52 1836.05 1044.52C1811.65 1044.52 1796.42 1055.57 1796.42 1073.34L1796.42 1073.42C1796.42 1087.01 1805.51 1096.1 1822.95 1099.46L1838.67 1102.57C1846.61 1104.21 1849.48 1106.42 1849.48 1110.43L1849.48 1110.51C1849.48 1115.1 1844.81 1117.88 1837.11 1117.88C1828.6 1117.88 1824.01 1114.36 1822.62 1108.3L1822.46 1107.65L1794.29 1107.65L1794.37 1108.39C1796.34 1125.74 1810.59 1137.45 1837.11 1137.45Z"/>
<path clip-path="url(#TextBounds)" d="M1903.27 1036.82C1911.71 1036.82 1918.09 1030.27 1918.09 1022.49C1918.09 1014.71 1911.71 1008.25 1903.27 1008.25C1894.92 1008.25 1888.45 1014.71 1888.45 1022.49C1888.45 1030.27 1894.92 1036.82 1903.27 1036.82ZM1888.78 1135.57L1917.77 1135.57L1917.77 1046.4L1888.78 1046.4L1888.78 1135.57Z"/>
<path clip-path="url(#TextBounds)" d="M1958.71 1136.8C1970.33 1136.8 1979.18 1131.72 1984.25 1122.96L1984.83 1122.96L1984.83 1135.57L2013.81 1135.57L2013.81 1074.73C2013.81 1056.64 1998.01 1044.52 1974.02 1044.52C1949.21 1044.52 1934.39 1056.39 1933 1073.75L1932.92 1074.81L1959.03 1074.81L1959.2 1074C1960.18 1069.41 1964.77 1065.81 1972.55 1065.81C1980.65 1065.81 1984.83 1069.82 1984.83 1076.29L1984.83 1080.71L1964.52 1082.02C1941.51 1083.58 1928.58 1092.99 1928.58 1109.78L1928.58 1109.86C1928.58 1125.42 1940.78 1136.8 1958.71 1136.8ZM1957.07 1107.98L1957.07 1107.89C1957.07 1102.57 1961.08 1099.22 1969.19 1098.72L1984.83 1097.66L1984.83 1103.64C1984.83 1111.17 1978.19 1116.74 1968.86 1116.74C1961.74 1116.74 1957.07 1113.54 1957.07 1107.98Z"/>
<path clip-path="url(#TextBounds)" d="M2027.65 1135.57L2056.72 1135.57L2056.72 1084.97C2056.72 1075.06 2062.45 1068.18 2071.7 1068.18C2081.2 1068.18 2086.03 1074.16 2086.03 1084.39L2086.03 1135.57L2115.02 1135.57L2115.02 1078.17C2115.02 1057.05 2103.96 1044.52 2084.39 1044.52C2070.88 1044.52 2061.71 1050.91 2057.29 1062.12L2056.72 1062.12L2056.72 1046.4L2027.65 1046.4L2027.65 1135.57Z"/>
<path clip-path="url(#TextBounds)" d="M2176.1 1137.7C2207.38 1137.7 2225.88 1122.71 2225.88 1099.13L2225.88 1099.05C2225.88 1080.14 2214.26 1069.98 2189.2 1065.15L2177.08 1062.86C2164.39 1060.49 2158.82 1057.13 2158.82 1050.74L2158.82 1050.66C2158.82 1043.86 2165.05 1038.87 2176.1 1038.87C2186.91 1038.87 2194.52 1043.7 2195.42 1051.48L2195.51 1052.38L2223.43 1052.38L2223.35 1050.66C2222.28 1029.21 2205.5 1015.29 2175.85 1015.29C2148.75 1015.29 2129.02 1029.94 2129.02 1052.71L2129.02 1052.79C2129.02 1070.88 2141.38 1082.43 2164.8 1086.77L2176.92 1089.06C2190.76 1091.76 2196 1094.88 2196 1101.59L2196 1101.67C2196 1109.04 2188.63 1114.12 2176.67 1114.12C2165.13 1114.12 2156.29 1109.12 2154.81 1101.51L2154.65 1100.61L2126.73 1100.61L2126.81 1102.08C2128.12 1124.68 2146.71 1137.7 2176.1 1137.7Z"/>
<path clip-path="url(#TextBounds)" d="M2276.49 1137.45C2282.55 1137.45 2286.88 1136.96 2290.08 1136.39L2290.08 1115.75C2288.44 1116 2286.97 1116.16 2284.67 1116.16C2277.55 1116.16 2274.11 1113.3 2274.11 1105.6L2274.11 1067.69L2290.08 1067.69L2290.08 1046.4L2274.11 1046.4L2274.11 1025.85L2245.04 1025.85L2245.04 1046.4L2232.93 1046.4L2232.93 1067.69L2245.04 1067.69L2245.04 1109.53C2245.04 1129.67 2254.87 1137.45 2276.49 1137.45Z"/>
<path clip-path="url(#TextBounds)" d="M2332.41 1137.45C2345.92 1137.45 2355.01 1131.07 2359.51 1119.85L2360.09 1119.85L2360.09 1135.57L2389.07 1135.57L2389.07 1046.4L2360.09 1046.4L2360.09 1097C2360.09 1106.91 2354.27 1113.87 2345.1 1113.87C2335.52 1113.87 2330.77 1107.81 2330.77 1097.58L2330.77 1046.4L2301.71 1046.4L2301.71 1103.8C2301.71 1124.93 2312.84 1137.45 2332.41 1137.45Z"/>
<path clip-path="url(#TextBounds)" d="M2435.91 1137.45C2448.76 1137.45 2458.51 1130.98 2462.93 1120.34L2463.5 1120.34L2463.5 1135.57L2492.49 1135.57L2492.49 1017.42L2463.5 1017.42L2463.5 1062.2L2462.93 1062.2C2458.42 1051.15 2448.68 1044.52 2435.91 1044.52C2413.47 1044.52 2400.37 1061.39 2400.37 1090.95L2400.37 1091.03C2400.37 1120.34 2413.64 1137.45 2435.91 1137.45ZM2446.63 1113.87C2436.4 1113.87 2429.85 1105.11 2429.85 1091.03L2429.85 1090.95C2429.85 1076.7 2436.4 1068.18 2446.63 1068.18C2456.71 1068.18 2463.5 1076.78 2463.5 1090.95L2463.5 1091.03C2463.5 1105.19 2456.79 1113.87 2446.63 1113.87Z"/>
<path clip-path="url(#TextBounds)" d="M2521.39 1036.82C2529.82 1036.82 2536.21 1030.27 2536.21 1022.49C2536.21 1014.71 2529.82 1008.25 2521.39 1008.25C2513.04 1008.25 2506.57 1014.71 2506.57 1022.49C2506.57 1030.27 2513.04 1036.82 2521.39 1036.82ZM2506.9 1135.57L2535.88 1135.57L2535.88 1046.4L2506.9 1046.4L2506.9 1135.57Z"/>
<path clip-path="url(#TextBounds)" d="M2592.95 1137.45C2621.04 1137.45 2638.56 1120.5 2638.56 1091.03L2638.56 1090.86C2638.56 1061.8 2620.71 1044.52 2592.95 1044.52C2565.28 1044.52 2547.35 1061.96 2547.35 1090.86L2547.35 1091.03C2547.35 1120.42 2564.71 1137.45 2592.95 1137.45ZM2593.04 1115.43C2582.97 1115.43 2576.82 1106.75 2576.82 1091.03L2576.82 1090.86C2576.82 1075.47 2583.13 1066.54 2592.95 1066.54C2602.78 1066.54 2609.17 1075.47 2609.17 1090.86L2609.17 1091.03C2609.17 1106.67 2602.94 1115.43 2593.04 1115.43Z"/>
</g>
<g fill="#000000" opacity="0" stroke="none">
<path clip-path="url(#TextBounds_2)" d="M2372.14 1222.67L2372.14 1162.02L2372.49 1162.02L2415.19 1222.67L2421.83 1222.67L2421.83 1150.1L2415.04 1150.1L2415.04 1210.7L2414.69 1210.7L2372.14 1150.1L2365.35 1150.1L2365.35 1222.67L2372.14 1222.67Z"/>
<path clip-path="url(#TextBounds_2)" d="M2449.84 1217.79C2442.75 1217.79 2437.87 1213.87 2437.87 1208.19C2437.87 1202.4 2442.45 1198.83 2450.7 1198.28L2466.19 1197.22L2466.19 1203.01C2466.19 1211.3 2459 1217.79 2449.84 1217.79ZM2448.49 1223.52C2456.28 1223.52 2463.42 1219.2 2466.34 1212.71L2466.49 1212.71L2466.49 1222.67L2472.83 1222.67L2472.83 1186.86C2472.83 1176.2 2465.33 1169.51 2453.41 1169.51C2441.49 1169.51 2433.8 1176.15 2433.05 1185.5L2439.48 1185.5C2440.64 1179.17 2445.57 1175.39 2453.26 1175.39C2461.41 1175.39 2466.19 1179.92 2466.19 1187.46L2466.19 1191.99L2449.89 1193C2437.82 1193.8 2431.13 1199.23 2431.13 1208.19C2431.13 1217.34 2438.18 1223.52 2448.49 1223.52Z"/>
<path clip-path="url(#TextBounds_2)" d="M2483.99 1222.67L2490.63 1222.67L2490.63 1191.69C2490.63 1181.98 2496.72 1175.44 2505.77 1175.44C2514.52 1175.44 2519.55 1180.67 2519.55 1189.83L2519.55 1222.67L2526.19 1222.67L2526.19 1188.77C2526.19 1176.9 2519.15 1169.51 2507.68 1169.51C2499.23 1169.51 2493.1 1173.68 2490.43 1180.02L2490.28 1180.02L2490.28 1170.36L2483.99 1170.36L2483.99 1222.67Z"/>
<path clip-path="url(#TextBounds_2)" d="M2558.63 1223.52C2572.86 1223.52 2582.47 1213.11 2582.47 1196.52C2582.47 1179.87 2572.86 1169.51 2558.63 1169.51C2544.44 1169.51 2534.79 1179.87 2534.79 1196.52C2534.79 1213.11 2544.39 1223.52 2558.63 1223.52ZM2558.63 1217.64C2548.37 1217.64 2541.58 1209.79 2541.58 1196.52C2541.58 1183.24 2548.37 1175.39 2558.63 1175.39C2568.89 1175.39 2575.73 1183.24 2575.73 1196.52C2575.73 1209.79 2568.89 1217.64 2558.63 1217.64Z"/>
</g>
<path d="M1180.84 1017.22L1350.68 1017.22L1350.68 1135.53L1180.84 1135.53L1180.84 1017.22Z" fill="#000000" fill-rule="nonzero" opacity="1" stroke="none"/>
<path clip-path="url(#TextBounds_3)" d="M2638.54 1021.48C2648.97 1021.48 2657.55 1012.9 2657.55 1002.47C2657.55 992.016 2648.97 983.434 2638.52 983.434C2628.07 983.434 2619.51 992.016 2619.51 1002.47C2619.51 1012.9 2628.09 1021.48 2638.54 1021.48ZM2638.54 1016.6C2630.69 1016.6 2624.41 1010.29 2624.41 1002.47C2624.41 994.62 2630.69 988.318 2638.52 988.318C2646.35 988.318 2652.67 994.62 2652.67 1002.47C2652.69 1010.29 2646.37 1016.6 2638.54 1016.6ZM2638.47 1010.78C2641.68 1010.78 2644.27 1009.31 2645.18 1006.99C2645.34 1006.61 2645.42 1006.25 2645.42 1005.88C2645.42 1004.76 2644.66 1004.1 2643.42 1004.1C2642.54 1004.1 2641.97 1004.46 2641.52 1005.29C2640.98 1006.47 2639.94 1007.12 2638.54 1007.12C2636.46 1007.12 2635.11 1005.3 2635.11 1002.41C2635.11 999.522 2636.46 997.708 2638.54 997.708C2639.94 997.708 2640.98 998.354 2641.54 999.575C2642.01 1000.44 2642.51 1000.74 2643.42 1000.74C2644.66 1000.74 2645.42 1000.08 2645.42 998.983C2645.42 998.57 2645.34 998.229 2645.18 997.852C2644.27 995.536 2641.65 994.045 2638.47 994.045C2633.73 994.045 2630.62 997.349 2630.62 1002.41C2630.62 1007.48 2633.71 1010.78 2638.47 1010.78Z" fill="#000000" opacity="0" stroke="none"/>
<g fill="#000000" opacity="0" stroke="none">
<path clip-path="url(#TextBounds_4)" d="M2748.43 1614.93L2778.39 1614.93L2778.39 1520.93L2810.98 1520.93L2810.98 1496.78L2715.84 1496.78L2715.84 1520.93L2748.43 1520.93L2748.43 1614.93Z"/>
<path clip-path="url(#TextBounds_4)" d="M2845.52 1616.81C2873.93 1616.81 2885.15 1600.11 2887.85 1587.75L2888.1 1586.76L2861.9 1586.76L2861.81 1587.17C2860.5 1590.86 2855.43 1596.18 2846.09 1596.18C2835.53 1596.18 2828.98 1589.06 2828.65 1577.02L2888.59 1577.02L2888.59 1568.5C2888.59 1541.48 2871.48 1523.88 2844.54 1523.88C2817.43 1523.88 2800.24 1541.65 2800.24 1570.31L2800.24 1570.39C2800.24 1599.21 2817.35 1616.81 2845.52 1616.81ZM2845.19 1544.51C2853.71 1544.51 2859.77 1549.92 2861.24 1559.91L2829.06 1559.91C2830.54 1550.08 2836.68 1544.51 2845.19 1544.51Z"/>
<path clip-path="url(#TextBounds_4)" d="M2892.17 1614.93L2922.22 1614.93L2936.64 1585.54L2937.21 1585.54L2951.86 1614.93L2983.23 1614.93L2956.61 1569.98L2983.31 1525.76L2952.03 1525.76L2938.85 1554.26L2938.27 1554.26L2925.01 1525.76L2892.26 1525.76L2918.87 1570.63L2892.17 1614.93Z"/>
<path clip-path="url(#TextBounds_4)" d="M3029.31 1616.81C3035.37 1616.81 3039.71 1616.32 3042.9 1615.75L3042.9 1595.12C3041.26 1595.36 3039.79 1595.53 3037.49 1595.53C3030.37 1595.53 3026.93 1592.66 3026.93 1584.96L3026.93 1547.05L3042.9 1547.05L3042.9 1525.76L3026.93 1525.76L3026.93 1505.21L2997.86 1505.21L2997.86 1525.76L2985.75 1525.76L2985.75 1547.05L2997.86 1547.05L2997.86 1588.89C2997.86 1609.04 3007.69 1616.81 3029.31 1616.81Z"/>
</g>
</g>
</svg>
