<?xml version="1.0" encoding="UTF-8" standalone="no"?>
<!DOCTYPE svg PUBLIC "-//W3C//DTD SVG 1.1//EN" "http://www.w3.org/Graphics/SVG/1.1/DTD/svg11.dtd">
<!-- Created with Vectornator (http://vectornator.io/) -->
<svg height="100%" stroke-miterlimit="10" style="fill-rule:nonzero;clip-rule:evenodd;stroke-linecap:round;stroke-linejoin:round;" version="1.1" viewBox="0 0 1638.57 151.438" width="100%" xml:space="preserve" xmlns="http://www.w3.org/2000/svg" xmlns:vectornator="http://vectornator.io" xmlns:xlink="http://www.w3.org/1999/xlink">
<defs>
<clipPath id="TextBounds">
<rect height="208.194" width="1225.03" x="334.678" y="-23.7157"/>
</clipPath>
<clipPath id="TextBounds_2">
<rect height="124.505" width="272.939" x="1266.92" y="124.98"/>
</clipPath>
<clipPath id="TextBounds_3">
<rect height="44.8813" width="104.57" x="1524.65" y="-19.2187"/>
</clipPath>
<clipPath id="TextBounds_4">
<rect height="201.116" width="337.904" x="1620.43" y="455.646"/>
</clipPath>
</defs>
<clipPath id="ArtboardFrame">
<rect height="151.438" width="1638.57" x="0" y="0"/>
</clipPath>
<g clip-path="url(#ArtboardFrame)" id="Layer-1" vectornator:layerName="Layer 1">
<path d="M-84.1036-205.839L1706.83-205.839C1711.7-205.839 1715.65-201.81 1715.65-196.839L1715.65 357.602C1715.65 362.573 1711.7 366.602 1706.83 366.602L-84.1036 366.602C-88.9745 366.602-92.9232 362.573-92.9232 357.602L-92.9232-196.839C-92.9232-201.81-88.9745-205.839-84.1036-205.839Z" fill="#ffffff" fill-rule="nonzero" opacity="0" stroke="none"/>
<path d="M262.535 17.6002L265.462 17.6002L265.462 135.909L262.535 135.909L262.535 17.6002Z" fill="#000000" fill-rule="nonzero" opacity="0" stroke="none"/>
<path d="M265.462 17.6002L495.524 17.6002L495.524 135.909L265.462 135.909L265.462 17.6002Z" fill="#ffffff" fill-rule="nonzero" opacity="0" stroke="none"/>
<path d="M271.671 17.6002L277.523 17.6002L277.523 135.909L271.671 135.909L271.671 17.6002Z" fill="#000000" fill-rule="nonzero" opacity="0" stroke="none"/>
<path d="M277.523 10.9055L507.586 10.9055L507.586 151.714L277.523 151.714L277.523 10.9055Z" fill="#ffffff" fill-rule="nonzero" opacity="0" stroke="none"/>
<path d="M306.911 17.6002L334.678 17.6002L334.678 135.909L306.911 135.909L306.911 17.6002Z" fill="#000000" fill-rule="nonzero" opacity="1" stroke="none"/>
<path d="M300.287 3.22194L536.974 3.22194L536.974 151.714L300.287 151.714L300.287 3.22194Z" fill="#ffffff" fill-rule="nonzero" opacity="0" stroke="none"/>
<path d="M269.677 17.6002L297.444 17.6002L297.444 135.909L269.677 135.909L269.677 17.6002Z" fill="#000000" fill-rule="nonzero" opacity="1" stroke="none"/>
<path d="M334.678 1.98347L564.741 1.98347L564.741 151.714L334.678 151.714L334.678 1.98347Z" fill="#ffffff" fill-rule="nonzero" opacity="0" stroke="none"/>
<g fill="#000000" opacity="1" stroke="none">
<path clip-path="url(#TextBounds)" d="M345.103 135.951L375.153 135.951L375.153 101.316L395.46 101.316C421.825 101.316 438.857 85.1036 438.857 59.8025L438.857 59.6388C438.857 34.3377 421.825 17.7978 395.46 17.7978L345.103 17.7978L345.103 135.951ZM388.254 40.8062C400.946 40.8062 408.479 47.3567 408.479 59.6388L408.479 59.8025C408.479 72.0846 400.946 78.717 388.254 78.717L375.153 78.717L375.153 40.8062L388.254 40.8062Z"/>
<path clip-path="url(#TextBounds)" d="M450.238 135.951L479.306 135.951L479.306 88.6245C479.306 75.933 485.938 69.2188 498.138 69.2188C501.577 69.2188 504.934 69.8738 507.391 70.8564L507.391 46.0466C505.18 45.3097 502.642 44.9003 499.858 44.9003C489.377 44.9003 482.335 51.287 479.879 62.5865L479.306 62.5865L479.306 46.7835L450.238 46.7835L450.238 135.951Z"/>
<path clip-path="url(#TextBounds)" d="M546.448 137.835C559.958 137.835 569.047 131.448 573.55 120.23L574.123 120.23L574.123 135.951L603.109 135.951L603.109 46.7835L574.123 46.7835L574.123 97.3857C574.123 107.293 568.31 114.253 559.139 114.253C549.559 114.253 544.81 108.194 544.81 97.9589L544.81 46.7835L515.742 46.7835L515.742 104.182C515.742 125.307 526.878 137.835 546.448 137.835Z"/>
<path clip-path="url(#TextBounds)" d="M656.331 137.835C680.814 137.835 697.517 126.126 697.517 107.703L697.517 107.621C697.517 94.2743 689.329 86.905 670.415 83.1385L654.694 80.027C646.26 78.3076 643.558 76.0149 643.558 72.1665L643.558 72.0846C643.558 67.4174 648.143 64.4697 655.267 64.4697C663.291 64.4697 667.795 68.8094 668.45 74.0498L668.532 74.7048L695.061 74.7048L694.979 74.0498C694.733 58.083 681.059 44.9003 655.267 44.9003C630.867 44.9003 615.637 55.9541 615.637 73.7222L615.637 73.8041C615.637 87.3963 624.726 96.485 642.166 99.8421L657.887 102.954C665.83 104.591 668.695 106.802 668.695 110.814L668.695 110.896C668.695 115.481 664.028 118.265 656.331 118.265C647.816 118.265 643.231 114.744 641.839 108.685L641.675 108.03L613.508 108.03L613.59 108.767C615.555 126.126 629.802 137.835 656.331 137.835Z"/>
<path clip-path="url(#TextBounds)" d="M746.973 137.835C771.456 137.835 788.159 126.126 788.159 107.703L788.159 107.621C788.159 94.2743 779.971 86.905 761.057 83.1385L745.336 80.027C736.902 78.3076 734.2 76.0149 734.2 72.1665L734.2 72.0846C734.2 67.4174 738.785 64.4697 745.909 64.4697C753.933 64.4697 758.437 68.8094 759.092 74.0498L759.173 74.7048L785.703 74.7048L785.621 74.0498C785.375 58.083 771.701 44.9003 745.909 44.9003C721.508 44.9003 706.279 55.9541 706.279 73.7222L706.279 73.8041C706.279 87.3963 715.367 96.485 732.808 99.8421L748.529 102.954C756.471 104.591 759.337 106.802 759.337 110.814L759.337 110.896C759.337 115.481 754.67 118.265 746.973 118.265C738.458 118.265 733.872 114.744 732.48 108.685L732.317 108.03L704.15 108.03L704.232 108.767C706.197 126.126 720.444 137.835 746.973 137.835Z"/>
<path clip-path="url(#TextBounds)" d="M813.133 37.2035C821.566 37.2035 827.953 30.653 827.953 22.8744C827.953 15.0957 821.566 8.62716 813.133 8.62716C804.781 8.62716 798.312 15.0957 798.312 22.8744C798.312 30.653 804.781 37.2035 813.133 37.2035ZM798.64 135.951L827.626 135.951L827.626 46.7835L798.64 46.7835L798.64 135.951Z"/>
<path clip-path="url(#TextBounds)" d="M868.566 137.18C880.193 137.18 889.036 132.103 894.113 123.342L894.686 123.342L894.686 135.951L923.672 135.951L923.672 75.1142C923.672 57.0186 907.869 44.9003 883.878 44.9003C859.068 44.9003 844.247 56.773 842.855 74.1316L842.774 75.1961L868.893 75.1961L869.057 74.3773C870.04 69.792 874.625 66.1892 882.404 66.1892C890.51 66.1892 894.686 70.2014 894.686 76.6699L894.686 81.0915L874.379 82.4016C851.371 83.9573 838.434 93.3736 838.434 110.159L838.434 110.241C838.434 125.798 850.634 137.18 868.566 137.18ZM866.928 108.358L866.928 108.276C866.928 102.954 870.94 99.5965 879.047 99.1052L894.686 98.0408L894.686 104.018C894.686 111.551 888.054 117.119 878.719 117.119C871.596 117.119 866.928 113.926 866.928 108.358Z"/>
<path clip-path="url(#TextBounds)" d="M937.509 135.951L966.577 135.951L966.577 85.3493C966.577 75.4417 972.309 68.5638 981.561 68.5638C991.059 68.5638 995.89 74.541 995.89 84.7761L995.89 135.951L1024.88 135.951L1024.88 78.5532C1024.88 57.428 1013.82 44.9003 994.253 44.9003C980.742 44.9003 971.572 51.287 967.15 62.5046L966.577 62.5046L966.577 46.7835L937.509 46.7835L937.509 135.951Z"/>
<path clip-path="url(#TextBounds)" d="M1085.96 138.08C1117.24 138.08 1135.74 123.096 1135.74 99.5146L1135.74 99.4327C1135.74 80.5183 1124.12 70.3651 1099.06 65.5342L1086.94 63.2415C1074.25 60.867 1068.68 57.5099 1068.68 51.1232L1068.68 51.0413C1068.68 44.2452 1074.91 39.2505 1085.96 39.2505C1096.77 39.2505 1104.38 44.0815 1105.28 51.8601L1105.36 52.7608L1133.29 52.7608L1133.2 51.0413C1132.14 29.5886 1115.35 15.6689 1085.71 15.6689C1058.61 15.6689 1038.88 30.3255 1038.88 53.0883L1038.88 53.1702C1038.88 71.2658 1051.24 82.811 1074.66 87.1507L1086.78 89.4433C1100.62 92.1454 1105.86 95.2568 1105.86 101.971L1105.86 102.053C1105.86 109.422 1098.49 114.499 1086.53 114.499C1074.99 114.499 1066.14 109.504 1064.67 101.889L1064.51 100.988L1036.58 100.988L1036.67 102.462C1037.98 125.061 1056.56 138.08 1085.96 138.08Z"/>
<path clip-path="url(#TextBounds)" d="M1186.34 137.835C1192.4 137.835 1196.74 137.343 1199.94 136.77L1199.94 116.136C1198.3 116.382 1196.83 116.546 1194.53 116.546C1187.41 116.546 1183.97 113.68 1183.97 105.983L1183.97 68.0725L1199.94 68.0725L1199.94 46.7835L1183.97 46.7835L1183.97 26.2315L1154.9 26.2315L1154.9 46.7835L1142.78 46.7835L1142.78 68.0725L1154.9 68.0725L1154.9 109.913C1154.9 130.056 1164.73 137.835 1186.34 137.835Z"/>
<path clip-path="url(#TextBounds)" d="M1242.27 137.835C1255.78 137.835 1264.87 131.448 1269.37 120.23L1269.94 120.23L1269.94 135.951L1298.93 135.951L1298.93 46.7835L1269.94 46.7835L1269.94 97.3857C1269.94 107.293 1264.13 114.253 1254.96 114.253C1245.38 114.253 1240.63 108.194 1240.63 97.9589L1240.63 46.7835L1211.56 46.7835L1211.56 104.182C1211.56 125.307 1222.7 137.835 1242.27 137.835Z"/>
<path clip-path="url(#TextBounds)" d="M1345.77 137.835C1358.62 137.835 1368.37 131.366 1372.79 120.722L1373.36 120.722L1373.36 135.951L1402.35 135.951L1402.35 17.7978L1373.36 17.7978L1373.36 62.5865L1372.79 62.5865C1368.28 51.5326 1358.54 44.9003 1345.77 44.9003C1323.33 44.9003 1310.23 61.7677 1310.23 91.3266L1310.23 91.4084C1310.23 120.722 1323.49 137.835 1345.77 137.835ZM1356.49 114.253C1346.26 114.253 1339.71 105.492 1339.71 91.4084L1339.71 91.3266C1339.71 77.0793 1346.26 68.5638 1356.49 68.5638C1366.56 68.5638 1373.36 77.1612 1373.36 91.3266L1373.36 91.4084C1373.36 105.574 1366.65 114.253 1356.49 114.253Z"/>
<path clip-path="url(#TextBounds)" d="M1431.25 37.2035C1439.68 37.2035 1446.07 30.653 1446.07 22.8744C1446.07 15.0957 1439.68 8.62716 1431.25 8.62716C1422.9 8.62716 1416.43 15.0957 1416.43 22.8744C1416.43 30.653 1422.9 37.2035 1431.25 37.2035ZM1416.76 135.951L1445.74 135.951L1445.74 46.7835L1416.76 46.7835L1416.76 135.951Z"/>
<path clip-path="url(#TextBounds)" d="M1502.81 137.835C1530.9 137.835 1548.42 120.885 1548.42 91.4084L1548.42 91.2447C1548.42 62.1771 1530.57 44.9003 1502.81 44.9003C1475.14 44.9003 1457.21 62.3408 1457.21 91.2447L1457.21 91.4084C1457.21 120.804 1474.56 137.835 1502.81 137.835ZM1502.89 115.809C1492.82 115.809 1486.68 107.13 1486.68 91.4084L1486.68 91.2447C1486.68 75.8511 1492.99 66.9261 1502.81 66.9261C1512.64 66.9261 1519.03 75.8511 1519.03 91.2447L1519.03 91.4084C1519.03 107.048 1512.8 115.809 1502.89 115.809Z"/>
</g>
<g fill="#000000" opacity="0" stroke="none">
<path clip-path="url(#TextBounds_2)" d="M1282 223.051L1282 162.398L1282.35 162.398L1325.05 223.051L1331.69 223.051L1331.69 150.478L1324.9 150.478L1324.9 211.081L1324.55 211.081L1282 150.478L1275.21 150.478L1275.21 223.051L1282 223.051Z"/>
<path clip-path="url(#TextBounds_2)" d="M1359.7 218.173C1352.61 218.173 1347.73 214.25 1347.73 208.567C1347.73 202.783 1352.31 199.212 1360.56 198.659L1376.05 197.603L1376.05 203.387C1376.05 211.685 1368.86 218.173 1359.7 218.173ZM1358.34 223.906C1366.14 223.906 1373.28 219.581 1376.2 213.093L1376.35 213.093L1376.35 223.051L1382.69 223.051L1382.69 187.242C1382.69 176.58 1375.19 169.891 1363.27 169.891C1351.35 169.891 1343.66 176.53 1342.9 185.885L1349.34 185.885C1350.5 179.548 1355.43 175.776 1363.12 175.776C1371.27 175.776 1376.05 180.302 1376.05 187.846L1376.05 192.372L1359.75 193.378C1347.68 194.183 1340.99 199.615 1340.99 208.567C1340.99 217.72 1348.03 223.906 1358.34 223.906Z"/>
<path clip-path="url(#TextBounds_2)" d="M1393.85 223.051L1400.49 223.051L1400.49 192.071C1400.49 182.364 1406.58 175.826 1415.63 175.826C1424.38 175.826 1429.41 181.056 1429.41 190.21L1429.41 223.051L1436.05 223.051L1436.05 189.154C1436.05 177.284 1429.01 169.891 1417.54 169.891C1409.09 169.891 1402.95 174.066 1400.29 180.403L1400.14 180.403L1400.14 170.746L1393.85 170.746L1393.85 223.051Z"/>
<path clip-path="url(#TextBounds_2)" d="M1468.49 223.906C1482.72 223.906 1492.32 213.495 1492.32 196.899C1492.32 180.252 1482.72 169.891 1468.49 169.891C1454.3 169.891 1444.65 180.252 1444.65 196.899C1444.65 213.495 1454.25 223.906 1468.49 223.906ZM1468.49 218.022C1458.23 218.022 1451.44 210.176 1451.44 196.899C1451.44 183.621 1458.23 175.776 1468.49 175.776C1478.75 175.776 1485.59 183.621 1485.59 196.899C1485.59 210.176 1478.75 218.022 1468.49 218.022Z"/>
</g>
<path d="M90.6966 17.6002L260.535 17.6002L260.535 135.909L90.6966 135.909L90.6966 17.6002Z" fill="#000000" fill-rule="nonzero" opacity="1" stroke="none"/>
<path clip-path="url(#TextBounds_3)" d="M1548.4 21.8617C1558.83 21.8617 1567.41 13.2793 1567.41 2.84762C1567.41-7.60202 1558.83-16.1844 1548.38-16.1844C1537.93-16.1844 1529.37-7.60202 1529.37 2.84762C1529.37 13.2793 1537.95 21.8617 1548.4 21.8617ZM1548.4 16.978C1540.55 16.978 1534.27 10.6759 1534.27 2.84762C1534.27-4.99859 1540.55-11.3007 1548.38-11.3007C1556.21-11.3007 1562.53-4.99859 1562.53 2.84762C1562.55 10.6759 1556.23 16.978 1548.4 16.978ZM1548.33 11.1607C1551.54 11.1607 1554.13 9.68837 1555.04 7.37221C1555.2 6.99517 1555.28 6.63607 1555.28 6.25902C1555.28 5.14583 1554.52 4.4815 1553.28 4.4815C1552.4 4.4815 1551.83 4.8406 1551.38 5.66652C1550.84 6.85153 1549.8 7.4979 1548.4 7.4979C1546.32 7.4979 1544.97 5.68447 1544.97 2.79376C1544.97-0.0969503 1546.32-1.91038 1548.4-1.91038C1549.8-1.91038 1550.84-1.26401 1551.4-0.0430861C1551.86 0.818741 1552.37 1.12397 1553.28 1.12397C1554.52 1.12397 1555.28 0.459646 1555.28-0.635592C1555.28-1.04855 1555.2-1.38969 1555.04-1.76674C1554.13-4.0829 1551.5-5.57314 1548.33-5.57314C1543.59-5.57314 1540.48-2.26947 1540.48 2.79376C1540.48 7.85699 1543.57 11.1607 1548.33 11.1607Z" fill="#000000" opacity="0" stroke="none"/>
<g fill="#000000" opacity="0" stroke="none">
<path clip-path="url(#TextBounds_4)" d="M1658.29 615.313L1688.25 615.313L1688.25 521.314L1720.84 521.314L1720.84 497.159L1625.7 497.159L1625.7 521.314L1658.29 521.314L1658.29 615.313Z"/>
<path clip-path="url(#TextBounds_4)" d="M1755.38 617.196C1783.79 617.196 1795.01 600.492 1797.71 588.128L1797.96 587.146L1771.75 587.146L1771.67 587.555C1770.36 591.24 1765.29 596.562 1755.95 596.562C1745.39 596.562 1738.84 589.438 1738.51 577.402L1798.45 577.402L1798.45 568.886C1798.45 541.866 1781.33 524.262 1754.4 524.262C1727.29 524.262 1710.1 542.03 1710.1 570.688L1710.1 570.77C1710.1 599.592 1727.21 617.196 1755.38 617.196ZM1755.05 544.895C1763.57 544.895 1769.63 550.3 1771.1 560.289L1738.92 560.289C1740.39 550.463 1746.53 544.895 1755.05 544.895Z"/>
<path clip-path="url(#TextBounds_4)" d="M1802.03 615.313L1832.08 615.313L1846.49 585.918L1847.07 585.918L1861.72 615.313L1893.08 615.313L1866.47 570.36L1893.17 526.145L1861.89 526.145L1848.7 554.639L1848.13 554.639L1834.87 526.145L1802.11 526.145L1828.73 571.015L1802.03 615.313Z"/>
<path clip-path="url(#TextBounds_4)" d="M1939.17 617.196C1945.22 617.196 1949.56 616.705 1952.76 616.132L1952.76 595.498C1951.12 595.743 1949.65 595.907 1947.35 595.907C1940.23 595.907 1936.79 593.041 1936.79 585.344L1936.79 547.434L1952.76 547.434L1952.76 526.145L1936.79 526.145L1936.79 505.593L1907.72 505.593L1907.72 526.145L1895.6 526.145L1895.6 547.434L1907.72 547.434L1907.72 589.275C1907.72 609.417 1917.55 617.196 1939.17 617.196Z"/>
</g>
</g>
</svg>
